<svg width="158" height="30" viewBox="0 0 158 30" fill="none" xmlns="http://www.w3.org/2000/svg">
<path d="M22.1064 29.4264C20.7372 29.4264 19.4345 28.9882 18.3431 28.1628C16.9622 27.1183 15.0336 27.1183 13.6526 28.1628C12.5612 28.9882 11.2585 29.4264 9.8893 29.4264C8.52011 29.4264 7.21742 28.9882 6.12598 28.1628L7.54211 26.2929C8.92304 27.3374 10.8517 27.3374 12.2326 26.2929C13.324 25.4674 14.6267 25.0293 15.9959 25.0293C17.3651 25.0293 18.6678 25.4674 19.7592 26.2929C21.1402 27.3374 23.0688 27.3374 24.4497 26.2929L25.8658 28.1628C24.7783 28.9882 23.4756 29.4264 22.1064 29.4264Z" fill="#F93F15"/>
<path d="M16.7435 0H15.1787V3.32518H16.7435V0Z" fill="#F93F15"/>
<path d="M31.9531 20.5066L30.5369 22.3765C29.1482 21.3242 27.2587 21.3202 25.8347 22.3687C25.0328 22.9907 24.0704 23.4053 23.0533 23.5657C22.7325 23.6166 22.4078 23.6401 22.087 23.6401C20.7296 23.6401 19.4034 23.198 18.3354 22.3687C16.9271 21.332 15.0416 21.332 13.6293 22.3687C12.5614 23.198 11.2352 23.6401 9.87774 23.6401C9.55695 23.6401 9.23226 23.6166 8.90756 23.5657C7.89045 23.4053 6.9281 22.9946 6.12614 22.3687C4.70218 21.3202 2.82052 21.3242 1.43176 22.3765L0.015625 20.5066C1.10707 19.6811 2.40585 19.243 3.77113 19.243C4.86648 19.243 5.92272 19.5247 6.87333 20.0606C6.31392 18.8009 6.02443 17.4239 6.02443 16.0234V16.0078C6.02443 14.2435 6.48605 12.5144 7.35451 11.0122C8.2347 9.49434 9.49436 8.23077 11.0044 7.3584C12.5105 6.48603 14.2357 6.02441 15.9843 6.02441H16C17.7526 6.02441 19.4738 6.48603 20.9839 7.3584C22.4861 8.22686 23.7457 9.49043 24.6259 11.0122C25.0523 11.7516 25.3809 12.5535 25.6 13.3946C25.8191 14.2357 25.9325 15.1159 25.9325 16.0078V16.0234C25.9325 17.4317 25.6469 18.8009 25.1071 20.0489C26.0499 19.5168 27.1022 19.243 28.1897 19.243C29.5628 19.243 30.8616 19.6811 31.9531 20.5066Z" fill="#F93F15"/>
<path d="M32 15.2959H28.6357V16.8607H32V15.2959Z" fill="#F93F15"/>
<path d="M3.36431 15.2959H0V16.8607H3.36431V15.2959Z" fill="#F93F15"/>
<path d="M27.8779 5.25783L26.7715 4.15137L24.3953 6.5275L25.5018 7.63396L27.8779 5.25783Z" fill="#F93F15"/>
<path d="M7.6027 6.52945L5.22656 4.15332L4.1201 5.25978L6.49623 7.63592L7.6027 6.52945Z" fill="#F93F15"/>
<path d="M154.729 7.93262H157.537L154.033 25.4766H151.249L151.945 21.9006H150.841L147.961 7.93262H150.817L151.873 13.2126C152.289 15.3406 152.593 17.4926 152.785 19.6686C152.961 17.7486 153.265 15.6126 153.697 13.2606L154.729 7.93262Z" fill="black"/>
<path d="M140.675 17.8685V18.5645C140.675 19.3805 141.099 19.7885 141.947 19.7885C142.603 19.7885 143.179 19.6125 143.675 19.2605V15.7565L141.971 16.2365C141.443 16.3805 141.091 16.5645 140.915 16.7885C140.755 17.0125 140.675 17.3725 140.675 17.8685ZM138.539 8.2685C139.451 7.9645 140.659 7.8125 142.163 7.8125C143.667 7.8125 144.763 8.1485 145.451 8.8205C146.139 9.4765 146.483 10.4685 146.483 11.7965V21.9005H143.747V20.8925C143.123 21.6125 142.243 21.9725 141.107 21.9725C139.987 21.9725 139.163 21.6925 138.635 21.1325C138.107 20.5725 137.843 19.7165 137.843 18.5645V17.7485C137.843 16.7725 138.075 16.0045 138.539 15.4445C139.003 14.8845 139.755 14.4605 140.795 14.1725L143.699 13.3805V11.7725C143.683 11.2765 143.539 10.9165 143.267 10.6925C142.995 10.4685 142.371 10.3565 141.395 10.3565C140.419 10.3565 139.467 10.5245 138.539 10.8605V8.2685Z" fill="black"/>
<path d="M133.321 9.22894C133.321 8.31694 132.825 7.86094 131.833 7.86094H129.841V19.4049H131.833C132.825 19.4049 133.321 18.8929 133.321 17.8689V9.22894ZM126.961 5.46094H132.193C133.473 5.46094 134.457 5.78094 135.145 6.42094C135.849 7.04494 136.201 7.94894 136.201 9.13294V18.0849C136.201 20.6289 134.913 21.9009 132.337 21.9009H126.961V5.46094Z" fill="black"/>
<path d="M120.921 9.1326H120.105C119.897 9.1326 119.649 9.1646 119.361 9.2286C119.745 9.8046 119.937 10.5166 119.937 11.3646V13.3566C119.937 14.5086 119.577 15.4126 118.857 16.0686C118.153 16.7086 117.089 17.0366 115.665 17.0526C115.073 17.0526 114.777 17.3246 114.777 17.8686C114.777 18.1406 114.865 18.3326 115.041 18.4446C115.217 18.5566 115.521 18.6126 115.953 18.6126H117.297C119.649 18.6126 120.825 19.5886 120.825 21.5406V22.0446C120.825 23.1326 120.425 23.9806 119.625 24.5886C118.841 25.1966 117.641 25.5006 116.025 25.5006H115.113C113.289 25.5006 111.889 25.1886 110.913 24.5646V21.9006C112.033 22.6686 113.409 23.0526 115.041 23.0526H115.689C116.601 23.0526 117.233 22.9646 117.585 22.7886C117.937 22.6126 118.113 22.3406 118.113 21.9726V21.8046C118.113 21.5166 118.025 21.3086 117.849 21.1806C117.689 21.0526 117.385 20.9886 116.937 20.9886H115.497C113.305 20.9886 112.209 20.2846 112.209 18.8766V18.4926C112.209 17.5486 112.641 16.9806 113.505 16.7886C111.889 16.2926 111.081 15.1486 111.081 13.3566V11.3646C111.081 10.1966 111.449 9.2926 112.185 8.6526C112.921 8.0126 113.929 7.6926 115.209 7.6926C116.489 7.6926 117.465 7.8606 118.137 8.1966C118.473 7.0766 119.281 6.5166 120.561 6.5166H120.921V9.1326ZM117.057 13.3566V11.3886C117.057 10.4766 116.537 10.0206 115.497 10.0206C114.473 10.0206 113.961 10.4766 113.961 11.3886V13.3566C113.961 14.2526 114.473 14.7006 115.497 14.7006C116.537 14.7006 117.057 14.2526 117.057 13.3566Z" fill="black"/>
<path d="M103.353 8.55635C104.281 8.09235 105.201 7.86035 106.113 7.86035C107.025 7.86035 107.761 8.12435 108.321 8.65235C108.881 9.16435 109.161 9.92435 109.161 10.9324V21.9004H106.209V11.5564C106.209 10.8684 105.857 10.5244 105.153 10.5244C104.609 10.5244 104.065 10.6764 103.521 10.9804V21.9004H100.617V7.93235H103.353V8.55635Z" fill="black"/>
<path d="M96.5724 7.0928C95.4844 7.0928 94.9404 6.5648 94.9404 5.5088C94.9404 4.45281 95.4844 3.9248 96.5724 3.9248C97.6764 3.9248 98.2284 4.45281 98.2284 5.5088C98.2284 6.5648 97.6764 7.0928 96.5724 7.0928ZM95.1324 8.1968H98.0364V21.9008H95.1324V8.1968Z" fill="black"/>
<path d="M89.6593 10.5249H88.4113C87.3713 10.5249 86.8513 11.0289 86.8513 12.0369V18.2049C86.8513 18.9729 87.2353 19.3569 88.0033 19.3569C88.6913 19.3569 89.2433 19.1969 89.6593 18.8769V10.5249ZM89.6353 4.21289H92.5393V21.9009H89.7313V20.9649C89.0433 21.6529 88.1793 21.9969 87.1393 21.9969C86.0993 21.9969 85.3073 21.7089 84.7633 21.1329C84.2193 20.5409 83.9473 19.7169 83.9473 18.6609V11.9649C83.9473 10.7009 84.2993 9.71689 85.0033 9.01289C85.7233 8.29289 86.7633 7.93289 88.1233 7.93289H89.6353V4.21289Z" fill="black"/>
<path d="M75.9079 8.55635C76.8359 8.09235 77.7559 7.86035 78.6679 7.86035C79.5799 7.86035 80.3159 8.12435 80.8759 8.65235C81.4359 9.16435 81.7159 9.92435 81.7159 10.9324V21.9004H78.7639V11.5564C78.7639 10.8684 78.4119 10.5244 77.7079 10.5244C77.1639 10.5244 76.6199 10.6764 76.0759 10.9804V21.9004H73.1719V7.93235H75.9079V8.55635Z" fill="black"/>
<path d="M67.7013 7.93262H70.5813V21.9006H67.8453V21.2526C67.0613 21.7006 66.1573 21.9246 65.1333 21.9246C64.1253 21.9246 63.3493 21.6446 62.8053 21.0846C62.2613 20.5246 61.9893 19.7166 61.9893 18.6606V7.93262H64.9173V18.1566C64.9173 18.9246 65.3013 19.3086 66.0693 19.3086C66.6293 19.3086 67.1733 19.1566 67.7013 18.8526V7.93262Z" fill="black"/>
<path d="M56.8948 11.5804C56.8948 10.6364 56.4068 10.1644 55.4308 10.1644C54.4708 10.1644 53.9908 10.6364 53.9908 11.5804V18.2524C53.9908 19.1964 54.4708 19.6684 55.4308 19.6684C56.4068 19.6684 56.8948 19.1964 56.8948 18.2524V11.5804ZM51.1348 11.5084C51.1348 10.3244 51.4868 9.39638 52.1908 8.72438C52.9108 8.03638 53.9908 7.69238 55.4308 7.69238C56.8868 7.69238 57.9668 8.03638 58.6708 8.72438C59.3908 9.39638 59.7508 10.3244 59.7508 11.5084V18.3244C59.7508 19.5084 59.3908 20.4444 58.6708 21.1324C57.9668 21.8044 56.8868 22.1404 55.4308 22.1404C53.9908 22.1404 52.9108 21.8044 52.1908 21.1324C51.4868 20.4444 51.1348 19.5084 51.1348 18.3244V11.5084Z" fill="black"/>
<path d="M42 5.46094H49.68V7.98094H44.904V12.8289H49.368V15.3969H44.904V21.9009H42V5.46094Z" fill="black"/>
</svg>
