<svg width="559" height="116" viewBox="0 0 559 116" fill="none" xmlns="http://www.w3.org/2000/svg">
<path d="M478.037 43.3054H471.125V11.4974H477.461V20.0734H477.909C478.869 14.9534 482.325 10.8574 488.853 10.8574C496.085 10.8574 499.221 16.0414 499.221 22.0574V26.2174H492.373V23.4014C492.373 18.8574 490.453 16.7454 485.717 16.7454C480.277 16.7454 478.037 19.7534 478.037 25.4494V43.3054Z" fill="#1B1B1B"/>
<path d="M448.381 43.9454C437.821 43.9454 430.717 37.2254 430.717 27.4334C430.717 17.5134 437.821 10.8574 448.381 10.8574C459.005 10.8574 466.109 17.5134 466.109 27.4334C466.109 37.2254 459.005 43.9454 448.381 43.9454ZM448.381 37.8014C456.125 37.8014 459.325 34.1534 459.325 27.4334C459.325 20.6494 456.125 16.9374 448.381 16.9374C440.701 16.9374 437.501 20.6494 437.501 27.4334C437.501 34.1534 440.701 37.8014 448.381 37.8014Z" fill="#1B1B1B"/>
<path d="M416.906 43.3058H409.994V17.2578H405.194V11.4978H410.058C410.826 4.52178 416.138 0.425781 425.162 0.425781H428.298V5.54578H424.074C419.018 5.54578 416.394 6.88978 416.778 11.4978H428.298V17.2578H416.906V43.3058Z" fill="#1B1B1B"/>
<path d="M376.79 43.9454C366.55 43.9454 360.726 39.9134 360.726 32.5534V32.3614H367.638V32.8734C367.638 37.0334 370.134 38.3774 376.79 38.3774C382.998 38.3774 384.854 37.0974 384.854 34.2814C384.854 31.6574 383.318 30.8254 378.774 30.1854L370.07 29.0334C364.054 28.2654 360.406 25.7054 360.406 20.3934C360.406 14.8254 365.462 10.8574 375.254 10.8574C384.982 10.8574 390.87 14.7614 390.87 22.3134V22.5054H384.022V22.1214C384.022 18.3454 382.102 16.3614 375.062 16.3614C369.238 16.3614 367.19 17.6414 367.19 20.6494C367.19 23.1454 368.47 24.0414 373.27 24.6814L380.63 25.7054C388.182 26.6654 391.638 29.2254 391.638 34.4734C391.638 40.4254 385.75 43.9454 376.79 43.9454Z" fill="#1B1B1B"/>
<path d="M329.287 43.3054H322.375V11.4974H328.711V21.3534H329.159C330.119 15.9774 334.343 10.8574 342.407 10.8574C351.239 10.8574 355.591 16.8094 355.591 24.1694V43.3054H348.679V26.0254C348.679 20.0734 345.991 17.0654 339.399 17.0654C332.423 17.0654 329.287 20.6494 329.287 27.5614V43.3054Z" fill="#1B1B1B"/>
<path d="M296.011 40.4254C286.539 40.4254 280.907 34.4734 280.907 25.6414C280.907 16.8094 286.795 10.8574 296.459 10.8574C303.115 10.8574 308.107 13.8654 309.259 19.4334H309.643V11.4974H315.979V39.5934C315.979 50.2814 309.323 54.8254 298.891 54.8254C289.483 54.8254 282.955 50.4094 282.955 42.7294H289.803C289.803 47.3374 292.491 49.0654 299.275 49.0654C306.507 49.0654 309.131 47.0814 309.131 39.9774V32.1694H308.683C307.531 36.9694 303.243 40.4254 296.011 40.4254ZM287.883 25.6414C287.883 32.1694 291.723 34.4734 298.251 34.4734C305.291 34.4734 309.131 31.5294 309.131 25.8974V25.0014C309.131 19.6254 305.163 16.8734 298.443 16.8734C291.787 16.8734 287.883 19.1134 287.883 25.6414Z" fill="#1B1B1B"/>
<path d="M275.787 7.78578H268.875V0.425781H275.787V7.78578ZM275.787 43.3058H268.875V11.4978H275.787V43.3058Z" fill="#1B1B1B"/>
<path d="M249.04 43.9454C238.8 43.9454 232.976 39.9134 232.976 32.5534V32.3614H239.888V32.8734C239.888 37.0334 242.384 38.3774 249.04 38.3774C255.248 38.3774 257.104 37.0974 257.104 34.2814C257.104 31.6574 255.568 30.8254 251.024 30.1854L242.32 29.0334C236.304 28.2654 232.656 25.7054 232.656 20.3934C232.656 14.8254 237.712 10.8574 247.504 10.8574C257.232 10.8574 263.12 14.7614 263.12 22.3134V22.5054H256.272V22.1214C256.272 18.3454 254.352 16.3614 247.312 16.3614C241.488 16.3614 239.44 17.6414 239.44 20.6494C239.44 23.1454 240.72 24.0414 245.52 24.6814L252.88 25.7054C260.432 26.6654 263.888 29.2254 263.888 34.4734C263.888 40.4254 258 43.9454 249.04 43.9454Z" fill="#1B1B1B"/>
<path d="M212.375 43.9454C201.943 43.9454 195.095 38.0574 195.095 27.4334C195.095 17.5134 201.879 10.8574 212.247 10.8574C222.103 10.8574 228.823 16.2974 228.823 25.9614C228.823 27.1134 228.759 28.0094 228.567 28.9694H201.559C201.815 35.1134 204.823 38.3774 212.183 38.3774C218.839 38.3774 221.591 36.2014 221.591 32.4254V31.9134H228.503V32.4894C228.503 39.2734 221.847 43.9454 212.375 43.9454ZM212.119 16.2974C205.079 16.2974 202.007 19.4334 201.623 25.1294H222.295V25.0014C222.295 19.1134 218.903 16.2974 212.119 16.2974Z" fill="#1B1B1B"/>
<path d="M170.016 43.9458C159.968 43.9458 154.4 37.2258 154.4 27.4338C154.4 17.5138 159.904 10.8578 169.568 10.8578C177.12 10.8578 181.408 14.7618 182.688 20.1378H183.072V0.425781H189.984V43.3058H183.648V34.1538H183.2C181.856 40.4898 177.184 43.9458 170.016 43.9458ZM161.376 27.4338C161.376 35.0498 165.28 37.6098 172.128 37.6098C178.912 37.6098 183.072 34.4098 183.072 27.7538V27.2418C183.072 20.4578 179.104 17.1298 172 17.1298C165.344 17.1298 161.376 19.7538 161.376 27.4338Z" fill="#1B1B1B"/>
<path d="M140.739 43.3055H133.443C126.595 43.3055 122.371 40.2975 122.371 32.5535V17.2575H116.995V11.4975H122.371V4.52148H129.219V11.4975H140.739V17.2575H129.219V32.1695C129.219 36.0735 131.011 37.0975 134.979 37.0975H140.739V43.3055Z" fill="#1B1B1B"/>
<path d="M100.04 43.9454C89.8003 43.9454 83.9762 39.9134 83.9762 32.5534V32.3614H90.8882V32.8734C90.8882 37.0334 93.3843 38.3774 100.04 38.3774C106.248 38.3774 108.104 37.0974 108.104 34.2814C108.104 31.6574 106.568 30.8254 102.024 30.1854L93.3203 29.0334C87.3043 28.2654 83.6562 25.7054 83.6562 20.3934C83.6562 14.8254 88.7122 10.8574 98.5042 10.8574C108.232 10.8574 114.12 14.7614 114.12 22.3134V22.5054H107.272V22.1214C107.272 18.3454 105.352 16.3614 98.3122 16.3614C92.4882 16.3614 90.4402 17.6414 90.4402 20.6494C90.4402 23.1454 91.7202 24.0414 96.5202 24.6814L103.88 25.7054C111.432 26.6654 114.888 29.2254 114.888 34.4734C114.888 40.4254 109 43.9454 100.04 43.9454Z" fill="#1B1B1B"/>
<path d="M59.4745 43.3054H52.5625V11.4974H58.8985V20.0734H59.3465C60.3065 14.9534 63.7625 10.8574 70.2905 10.8574C77.5225 10.8574 80.6585 16.0414 80.6585 22.0574V26.2174H73.8105V23.4014C73.8105 18.8574 71.8905 16.7454 67.1545 16.7454C61.7145 16.7454 59.4745 19.7534 59.4745 25.4494V43.3054Z" fill="#1B1B1B"/>
<path d="M46.162 7.78578H39.25V0.425781H46.162V7.78578ZM46.162 43.3058H39.25V11.4978H46.162V43.3058Z" fill="#1B1B1B"/>
<path d="M6.912 43.3058H0V0.425781H34.112V6.63378H6.912V19.9458H33.152V26.0898H6.912V43.3058Z" fill="#1B1B1B"/>
<path d="M336.796 112.362C336.796 112.021 337.031 111.807 337.5 111.722C340.487 111.722 343.665 110.762 347.036 108.842C350.449 106.922 352.156 104.917 352.156 102.826C352.156 101.29 351.132 99.8181 349.084 98.4101C347.036 96.9594 346.012 95.4448 346.012 93.8661C346.012 91.5194 347.505 89.4928 350.492 87.7861C353.479 86.0368 356.871 85.1621 360.668 85.1621C361.351 85.1621 361.799 85.1834 362.012 85.2261C362.225 85.2261 362.417 85.0981 362.588 84.8421C362.801 84.5434 363.036 84.2234 363.292 83.8821C363.548 83.5408 364.017 83.2421 364.7 82.9861C365.383 82.6874 366.193 82.5381 367.132 82.5381C369.308 82.5381 370.396 82.8581 370.396 83.4981C370.396 83.6261 370.375 83.7328 370.332 83.8181C369.649 84.4154 368.433 85.8874 366.684 88.2341C364.935 90.5808 363.655 92.7781 362.844 94.8261C362.673 95.2101 362.289 95.4021 361.692 95.4021C361.137 95.4021 360.583 95.0821 360.028 94.4421C359.473 93.7594 359.196 93.1194 359.196 92.5221C359.196 91.8821 359.303 91.2208 359.516 90.5381C359.729 89.8128 359.836 89.3861 359.836 89.2581C359.836 88.7034 359.495 88.4261 358.812 88.4261C357.489 88.4261 356.103 88.8314 354.652 89.6421C353.244 90.4101 352.54 91.5408 352.54 93.0341C352.54 94.4848 353.607 95.9568 355.74 97.4501C356.551 98.0474 357.276 98.8154 357.916 99.7541C358.599 100.693 358.94 101.674 358.94 102.698C358.94 105.599 357.041 108.223 353.244 110.57C349.447 112.959 345.329 114.154 340.892 114.154C338.375 114.154 337.009 113.557 336.796 112.362Z" fill="#F93F15"/>
<path d="M337.91 101.226C337.099 101.226 336.481 100.82 336.054 100.01C335.627 99.1564 335.414 98.3457 335.414 97.5777C335.414 96.767 335.67 95.8497 336.182 94.8257C336.182 94.271 335.969 93.9937 335.542 93.9937C333.878 93.9937 331.979 94.9964 329.846 97.0017C327.713 98.9644 325.921 101.012 324.47 103.146C323.019 105.236 321.697 107.348 320.502 109.482C319.777 110.762 318.283 111.402 316.022 111.402C314.87 111.402 314.294 111.146 314.294 110.634C314.294 109.482 316.385 105.194 320.566 97.7697C324.79 90.303 327.585 86.3137 328.95 85.8017C329.889 85.3324 330.934 85.0977 332.086 85.0977C333.281 85.0977 333.878 85.3537 333.878 85.8657C333.878 86.335 333.387 87.2737 332.406 88.6817C331.425 90.0897 330.934 90.9857 330.934 91.3697C330.934 91.7537 331.083 91.9457 331.382 91.9457C331.553 91.9457 332.022 91.6897 332.79 91.1777C334.667 89.7697 336.971 88.319 339.702 86.8257L340.278 86.0577C341.302 84.7777 342.774 84.1377 344.694 84.1377C346.657 84.1377 347.638 84.5217 347.638 85.2897C347.553 85.503 347.339 85.8444 346.998 86.3137C343.627 90.9217 340.79 95.743 338.486 100.778C338.315 101.076 338.123 101.226 337.91 101.226Z" fill="#F93F15"/>
<path d="M301.897 113.002C299.422 113.002 297.609 112.256 296.457 110.762C295.305 109.312 294.729 107.52 294.729 105.386C294.729 103.21 295.198 100.949 296.137 98.6024C297.075 96.213 298.355 93.909 299.977 91.6904C301.641 89.4717 303.795 87.6157 306.44 86.1224C309.128 84.5864 312.009 83.8184 315.081 83.8184C316.489 83.8184 317.555 84.2664 318.281 85.1624C319.006 86.0157 319.368 87.0397 319.368 88.2344C319.368 90.709 318.494 93.013 316.745 95.1464C314.995 97.2797 313.054 98.901 310.921 100.01C308.787 101.12 306.889 101.76 305.225 101.93C303.603 102.058 302.515 102.357 301.961 102.826C301.406 103.296 301.129 104.234 301.129 105.642C301.129 107.05 301.449 108.117 302.089 108.842C302.729 109.568 303.369 110.058 304.009 110.314C304.649 110.57 304.969 110.826 304.969 111.082C304.969 111.68 304.649 112.149 304.009 112.49C303.369 112.832 302.665 113.002 301.897 113.002ZM313.16 89.8344C313.16 88.5117 312.563 87.8504 311.368 87.8504C309.662 87.8504 307.763 89.045 305.673 91.4344C303.625 93.8237 302.6 95.9784 302.6 97.8984C302.6 98.3677 302.963 98.6024 303.689 98.6024C305.438 98.6024 307.443 97.7064 309.704 95.9144C312.008 94.1224 313.16 92.0957 313.16 89.8344Z" fill="#F93F15"/>
<path d="M281.977 101.738C284.238 99.7328 286.222 97.6208 287.929 95.4022C289.636 93.1408 290.489 91.7328 290.489 91.1782C290.489 90.5808 290.233 90.0902 289.721 89.7062C289.209 89.3222 288.42 89.1302 287.353 89.1302C284.878 89.1302 282.276 90.8155 279.545 94.1862C276.814 97.5568 275.449 100.437 275.449 102.826C275.449 104.106 275.897 104.746 276.793 104.746C277.988 104.746 279.716 103.744 281.977 101.738ZM285.625 111.018H285.497C283.449 111.018 282.425 109.866 282.425 107.562L282.553 106.282L282.105 105.642C281.849 105.642 281.529 105.792 281.145 106.09C277.476 109.632 274.254 111.402 271.481 111.402C270.628 111.402 269.838 111.061 269.113 110.378C268.43 109.738 268.089 108.608 268.089 106.986C268.089 103.744 269.497 100.01 272.313 95.7862C276.75 89.0875 282.34 85.7382 289.081 85.7382C290.02 85.7382 290.873 85.8875 291.641 86.1862C292.452 86.4422 292.942 86.5702 293.113 86.5702C293.326 86.5702 293.689 86.2502 294.201 85.6102C294.713 84.9275 296.356 82.2182 299.129 77.4822C305.572 66.5168 309.348 59.9035 310.457 57.6422C311.396 55.7648 313.764 54.8262 317.561 54.8262C318.713 54.8262 319.289 55.1675 319.289 55.8502C319.289 56.1062 318.372 57.4288 316.537 59.8182C314.745 62.2075 312.164 65.8555 308.793 70.7622C305.465 75.6688 302.372 80.7035 299.513 85.8662C292.132 97.6422 287.737 105.77 286.329 110.25C286.158 110.762 285.924 111.018 285.625 111.018Z" fill="#F93F15"/>
<path d="M255.674 112.106C254.479 112.106 253.882 111.829 253.882 111.274L254.01 110.89C256.57 107.05 258.767 103.359 260.602 99.818C262.436 96.234 263.354 93.9087 263.354 92.842C263.354 92.5007 263.268 92.2447 263.098 92.074C262.927 91.8607 262.671 91.7327 262.33 91.69C260.666 91.69 258.426 92.7567 255.61 94.89C252.836 97.0233 250.383 99.2207 248.25 101.482C246.159 103.743 244.602 105.599 243.578 107.05C242.554 108.458 241.018 109.162 238.97 109.162C237.86 109.162 237.306 108.885 237.306 108.33C237.306 107.221 239.396 103.317 243.578 96.618C247.759 89.8767 250.532 86.25 251.898 85.738C252.623 85.3113 253.54 85.098 254.65 85.098C255.802 85.098 256.378 85.3327 256.378 85.802C256.378 86.2287 255.866 87.1887 254.842 88.682C253.818 90.1753 253.306 91.1353 253.306 91.562C253.391 91.9033 253.562 92.074 253.818 92.074C254.116 92.074 254.372 91.9887 254.586 91.818C260.9 86.9113 265.935 84.458 269.69 84.458C271.268 84.458 272.058 85.3753 272.058 87.21C272.058 88.4047 271.162 90.986 269.37 94.954C267.62 98.922 265.38 102.783 262.65 106.538C259.962 110.25 257.636 112.106 255.674 112.106Z" fill="#F93F15"/>
<path d="M227.876 103.594C227.876 103.295 227.769 103.146 227.556 103.146H227.428L226.468 103.594C223.695 106.282 221.433 108.138 219.684 109.162C217.935 110.143 216.121 110.634 214.244 110.634C213.391 110.634 212.623 110.378 211.94 109.866C211.257 109.354 210.916 108.373 210.916 106.922C210.916 105.471 211.663 102.911 213.156 99.2419C214.649 95.5726 216.505 92.0739 218.724 88.7459C220.943 85.3753 222.884 83.4766 224.548 83.0499C225.103 82.8793 225.849 82.7939 226.788 82.7939C227.727 82.7939 228.196 83.0499 228.196 83.5619C228.196 83.7326 227.428 84.9273 225.892 87.1459C224.356 89.3219 222.82 91.8179 221.284 94.6339C219.791 97.4499 219.044 99.5619 219.044 100.97C219.044 102.378 219.535 103.082 220.516 103.082C222.351 103.082 224.463 101.887 226.852 99.4979C229.241 97.1086 232.377 93.3326 236.26 88.1699C237.327 86.6339 239.033 85.8659 241.38 85.8659C242.66 85.8659 243.3 86.1219 243.3 86.6339C243.3 86.7619 243.236 86.9326 243.108 87.1459C236.409 97.4713 232.377 104.874 231.012 109.354C230.841 109.866 230.628 110.122 230.372 110.122H230.18C228.473 110.122 227.62 108.757 227.62 106.026L227.876 103.594Z" fill="#F93F15"/>
<path d="M186.625 110.186C185.644 109.717 184.833 108.885 184.193 107.69C183.596 106.496 183.297 105.024 183.297 103.274C183.297 100.544 184.172 97.685 185.921 94.6984C187.713 91.7117 190.209 89.1517 193.409 87.0184C196.652 84.885 200.065 83.8184 203.649 83.8184C205.313 83.8184 206.7 84.2664 207.809 85.1624C208.918 86.0584 209.473 86.9544 209.473 87.8504C209.473 88.7037 209.345 89.3864 209.089 89.8984C208.833 90.4104 208.705 90.7517 208.705 90.9224C208.705 91.4344 209.11 91.6904 209.921 91.6904C210.732 91.6904 211.35 91.5837 211.777 91.3704C212.204 91.157 212.46 91.0504 212.545 91.0504C212.886 91.0504 213.057 91.4984 213.057 92.3944C213.057 93.2477 212.63 94.2717 211.777 95.4664C210.924 96.6184 209.878 97.4717 208.641 98.0264C208.47 98.3677 208.236 98.8584 207.937 99.4984C207.638 100.096 206.934 101.162 205.825 102.698C204.716 104.192 203.521 105.536 202.241 106.73C201.004 107.882 199.34 108.928 197.249 109.866C195.201 110.848 193.324 111.338 191.617 111.338C189.91 111.338 188.246 110.954 186.625 110.186ZM200.897 99.1784C200.897 98.837 200.705 98.6664 200.321 98.6664C199.766 98.6664 199.126 98.7944 198.401 99.0504C197.718 99.3064 197.334 99.4344 197.249 99.4344C196.993 99.4344 196.865 99.2424 196.865 98.8584C196.865 97.1944 197.462 95.765 198.657 94.5704C199.126 94.0584 199.809 93.6317 200.705 93.2904C201.601 92.9064 202.284 92.4797 202.753 92.0104C203.265 91.4984 203.521 90.645 203.521 89.4504C203.521 87.9997 202.753 87.2744 201.217 87.2744C198.486 87.2744 195.884 89.2157 193.409 93.0984C190.934 96.9384 189.697 100.373 189.697 103.402C189.697 104.426 190.038 105.301 190.721 106.026C191.446 106.752 192.3 107.114 193.281 107.114C195.5 107.114 197.313 106.197 198.721 104.362C200.172 102.485 200.897 100.757 200.897 99.1784Z" fill="#F93F15"/>
<path d="M186.488 88.2344L180.984 88.0424C178.296 88.0424 176.248 88.9171 174.84 90.6664C172.579 93.6104 170.232 97.4718 167.8 102.25C165.411 106.986 163.747 109.696 162.808 110.378C161.272 111.573 159.309 112.17 156.92 112.17C155.64 112.17 155 111.893 155 111.338V111.146C155 110.677 156.472 107.904 159.416 102.826C162.403 97.7064 165.688 92.0104 169.272 85.7384C172.899 79.4664 175.224 75.1571 176.248 72.8104C177.315 70.4638 177.848 68.4584 177.848 66.7944V66.1544C177.848 65.4291 182.392 65.0664 191.48 65.0664C194.467 65.0664 197.069 65.1091 199.288 65.1944C199.928 64.4691 201.549 64.1064 204.152 64.1064C205.304 64.1064 205.88 64.3838 205.88 64.9384C205.88 65.9624 204.835 68.0318 202.744 71.1464C200.696 74.2184 198.968 76.2024 197.56 77.0984C196.963 77.3971 196.387 77.5464 195.832 77.5464C195.277 77.5464 195 77.3758 195 77.0344C195 76.9918 195.107 76.7571 195.32 76.3304C195.917 75.1358 196.216 73.7064 196.216 72.0424C196.216 69.6958 194.573 68.5224 191.288 68.5224C189.325 68.5224 187.768 69.0344 186.616 70.0584C185.507 71.0824 184.397 72.5118 183.288 74.3464C182.179 76.1811 181.347 77.7598 180.792 79.0824C180.28 80.4051 180.024 81.3224 180.024 81.8344C180.024 82.3038 180.259 82.7518 180.728 83.1784C181.197 83.6051 183.48 83.8184 187.576 83.8184C189.411 83.8184 190.648 83.7971 191.288 83.7544C191.928 83.6691 192.269 83.6264 192.312 83.6264C192.696 83.6264 192.888 83.7758 192.888 84.0744C192.888 84.2451 192.867 84.3731 192.824 84.4584C192.227 85.9091 191.501 86.9118 190.648 87.4664C189.837 87.9784 188.451 88.2344 186.488 88.2344Z" fill="#F93F15"/>
<path d="M132.959 113.002C130.484 113.002 128.671 112.256 127.519 110.762C126.367 109.312 125.791 107.52 125.791 105.386C125.791 103.21 126.26 100.949 127.199 98.6024C128.138 96.213 129.418 93.909 131.039 91.6904C132.703 89.4717 134.858 87.6157 137.503 86.1224C140.191 84.5864 143.071 83.8184 146.143 83.8184C147.551 83.8184 148.618 84.2664 149.343 85.1624C150.068 86.0157 150.431 87.0397 150.431 88.2344C150.431 90.709 149.556 93.013 147.807 95.1464C146.058 97.2797 144.116 98.901 141.983 100.01C139.85 101.12 137.951 101.76 136.287 101.93C134.666 102.058 133.578 102.357 133.023 102.826C132.468 103.296 132.191 104.234 132.191 105.642C132.191 107.05 132.511 108.117 133.151 108.842C133.791 109.568 134.431 110.058 135.071 110.314C135.711 110.57 136.031 110.826 136.031 111.082C136.031 111.68 135.711 112.149 135.071 112.49C134.431 112.832 133.727 113.002 132.959 113.002ZM144.223 89.8344C144.223 88.5117 143.626 87.8504 142.431 87.8504C140.724 87.8504 138.826 89.045 136.735 91.4344C134.687 93.8237 133.663 95.9784 133.663 97.8984C133.663 98.3677 134.026 98.6024 134.751 98.6024C136.5 98.6024 138.506 97.7064 140.767 95.9144C143.071 94.1224 144.223 92.0957 144.223 89.8344Z" fill="#F93F15"/>
<path d="M121.16 101.226C120.349 101.226 119.731 100.82 119.304 100.01C118.877 99.1564 118.664 98.3457 118.664 97.5777C118.664 96.767 118.92 95.8497 119.432 94.8257C119.432 94.271 119.219 93.9937 118.792 93.9937C117.128 93.9937 115.229 94.9964 113.096 97.0017C110.963 98.9644 109.171 101.012 107.72 103.146C106.269 105.236 104.947 107.348 103.752 109.482C103.027 110.762 101.533 111.402 99.2719 111.402C98.1199 111.402 97.5439 111.146 97.5439 110.634C97.5439 109.482 99.6346 105.194 103.816 97.7697C108.04 90.303 110.835 86.3137 112.2 85.8017C113.139 85.3324 114.184 85.0977 115.336 85.0977C116.531 85.0977 117.128 85.3537 117.128 85.8657C117.128 86.335 116.637 87.2737 115.656 88.6817C114.675 90.0897 114.184 90.9857 114.184 91.3697C114.184 91.7537 114.333 91.9457 114.632 91.9457C114.803 91.9457 115.272 91.6897 116.04 91.1777C117.917 89.7697 120.221 88.319 122.952 86.8257L123.528 86.0577C124.552 84.7777 126.024 84.1377 127.944 84.1377C129.907 84.1377 130.888 84.5217 130.888 85.2897C130.803 85.503 130.589 85.8444 130.248 86.3137C126.877 90.9217 124.04 95.743 121.736 100.778C121.565 101.076 121.373 101.226 121.16 101.226Z" fill="#F93F15"/>
<path d="M88.626 103.594C88.626 103.295 88.5193 103.146 88.306 103.146H88.178L87.218 103.594C84.4447 106.282 82.1834 108.138 80.434 109.162C78.6847 110.143 76.8714 110.634 74.994 110.634C74.1407 110.634 73.3727 110.378 72.69 109.866C72.0074 109.354 71.666 108.373 71.666 106.922C71.666 105.471 72.4127 102.911 73.906 99.2419C75.3994 95.5726 77.2553 92.0739 79.474 88.7459C81.6927 85.3753 83.634 83.4766 85.298 83.0499C85.8527 82.8793 86.5993 82.7939 87.538 82.7939C88.4767 82.7939 88.946 83.0499 88.946 83.5619C88.946 83.7326 88.178 84.9273 86.642 87.1459C85.106 89.3219 83.57 91.8179 82.034 94.6339C80.5407 97.4499 79.794 99.5619 79.794 100.97C79.794 102.378 80.2847 103.082 81.266 103.082C83.1007 103.082 85.2127 101.887 87.602 99.4979C89.9914 97.1086 93.1273 93.3326 97.01 88.1699C98.0767 86.6339 99.7834 85.8659 102.13 85.8659C103.41 85.8659 104.05 86.1219 104.05 86.6339C104.05 86.7619 103.986 86.9326 103.858 87.1459C97.1593 97.4713 93.1273 104.874 91.762 109.354C91.5913 109.866 91.378 110.122 91.122 110.122H90.93C89.2234 110.122 88.37 108.757 88.37 106.026L88.626 103.594Z" fill="#F93F15"/>
<path d="M91.1886 68.4582L94.3246 68.3302C94.7512 68.3302 94.9646 68.4155 94.9646 68.5862C94.9646 68.7568 94.9219 68.9702 94.8366 69.2262C94.7512 69.4822 94.5592 69.8022 94.2606 70.1862C94.0046 70.5702 93.6846 70.9115 93.3006 71.2102C92.2766 72.0208 90.9966 72.4262 89.4606 72.4262C87.9672 72.4262 86.8579 72.4688 86.1326 72.5542C85.4499 72.6395 84.8526 72.8528 84.3406 73.1942C83.8286 73.5355 83.4872 73.7915 83.3166 73.9622C83.1459 74.1328 82.8472 74.5595 82.4206 75.2422C81.9939 75.9248 81.6952 76.3942 81.5246 76.6502C79.2632 79.8075 75.5939 85.7595 70.5166 94.5062C65.4819 103.253 62.3459 110.015 61.1086 114.794C60.9806 115.221 60.5752 115.434 59.8926 115.434C59.2526 115.434 58.3566 114.88 57.2046 113.77C56.0526 112.661 55.4766 111.53 55.4766 110.378C55.4766 109.226 57.2046 105.792 60.6606 100.074C64.1592 94.3568 67.6579 88.7462 71.1566 83.2422C74.6552 77.6955 76.4046 74.6235 76.4046 74.0262C76.4046 73.3862 76.1486 73.0022 75.6366 72.8742C75.1246 72.7035 74.2286 72.6182 72.9486 72.6182H70.8366C70.2819 72.6182 70.0046 72.3622 70.0046 71.8502C70.0046 71.3382 70.2392 70.8048 70.7086 70.2502C71.2206 69.6528 71.9672 69.1408 72.9486 68.7142C73.9726 68.2875 74.9966 67.8608 76.0206 67.4342C77.0872 67.0075 78.4526 66.0475 80.1166 64.5542C81.8232 63.0608 83.5299 61.1408 85.2366 58.7942C86.3032 57.3435 88.1379 56.6182 90.7406 56.6182C91.6366 56.6182 92.0846 56.8955 92.0846 57.4502C92.0846 57.7915 91.1246 59.3488 89.2046 62.1222C87.2846 64.8955 86.3246 66.6448 86.3246 67.3702C86.3246 68.0528 86.9646 68.3942 88.2446 68.3942C88.7566 68.4368 89.7379 68.4582 91.1886 68.4582Z" fill="#F93F15"/>
<path d="M48.001 103.594C48.001 103.295 47.8944 103.146 47.681 103.146H47.553L46.593 103.594C43.8197 106.282 41.5583 108.138 39.809 109.162C38.0597 110.143 36.2463 110.634 34.369 110.634C33.5157 110.634 32.7477 110.378 32.065 109.866C31.3823 109.354 31.041 108.373 31.041 106.922C31.041 105.471 31.7877 102.911 33.281 99.2419C34.7743 95.5726 36.6303 92.0739 38.849 88.7459C41.0677 85.3753 43.009 83.4766 44.673 83.0499C45.2277 82.8793 45.9743 82.7939 46.913 82.7939C47.8517 82.7939 48.321 83.0499 48.321 83.5619C48.321 83.7326 47.553 84.9273 46.017 87.1459C44.481 89.3219 42.945 91.8179 41.409 94.6339C39.9157 97.4499 39.169 99.5619 39.169 100.97C39.169 102.378 39.6597 103.082 40.641 103.082C42.4757 103.082 44.5877 101.887 46.977 99.4979C49.3664 97.1086 52.5023 93.3326 56.385 88.1699C57.4517 86.6339 59.1584 85.8659 61.505 85.8659C62.785 85.8659 63.425 86.1219 63.425 86.6339C63.425 86.7619 63.361 86.9326 63.233 87.1459C56.5343 97.4713 52.5023 104.874 51.137 109.354C50.9663 109.866 50.753 110.122 50.497 110.122H50.305C48.5984 110.122 47.745 108.757 47.745 106.026L48.001 103.594Z" fill="#F93F15"/>
<path d="M31.488 88.2344L25.984 88.0424C23.296 88.0424 21.248 88.9171 19.84 90.6664C17.5787 93.6104 15.232 97.4718 12.8 102.25C10.4107 106.986 8.74667 109.696 7.808 110.378C6.272 111.573 4.30933 112.17 1.92 112.17C0.64 112.17 0 111.893 0 111.338V111.146C0 110.677 1.472 107.904 4.416 102.826C7.40267 97.7064 10.688 92.0104 14.272 85.7384C17.8987 79.4664 20.224 75.1571 21.248 72.8104C22.3147 70.4638 22.848 68.4584 22.848 66.7944V66.1544C22.848 65.4291 27.392 65.0664 36.48 65.0664C39.4667 65.0664 42.0693 65.1091 44.288 65.1944C44.928 64.4691 46.5493 64.1064 49.152 64.1064C50.304 64.1064 50.88 64.3838 50.88 64.9384C50.88 65.9624 49.8347 68.0318 47.744 71.1464C45.696 74.2184 43.968 76.2024 42.56 77.0984C41.9627 77.3971 41.3867 77.5464 40.832 77.5464C40.2773 77.5464 40 77.3758 40 77.0344C40 76.9918 40.1067 76.7571 40.32 76.3304C40.9173 75.1358 41.216 73.7064 41.216 72.0424C41.216 69.6958 39.5733 68.5224 36.288 68.5224C34.3253 68.5224 32.768 69.0344 31.616 70.0584C30.5067 71.0824 29.3973 72.5118 28.288 74.3464C27.1787 76.1811 26.3467 77.7598 25.792 79.0824C25.28 80.4051 25.024 81.3224 25.024 81.8344C25.024 82.3038 25.2587 82.7518 25.728 83.1784C26.1973 83.6051 28.48 83.8184 32.576 83.8184C34.4107 83.8184 35.648 83.7971 36.288 83.7544C36.928 83.6691 37.2693 83.6264 37.312 83.6264C37.696 83.6264 37.888 83.7758 37.888 84.0744C37.888 84.2451 37.8667 84.3731 37.824 84.4584C37.2267 85.9091 36.5013 86.9118 35.648 87.4664C34.8373 87.9784 33.4507 88.2344 31.488 88.2344Z" fill="#F93F15"/>
</svg>
